<?xml version="1.0" standalone="no"?>
<!DOCTYPE svg PUBLIC "-//W3C//DTD SVG 20010904//EN"
 "http://www.w3.org/TR/2001/REC-SVG-20010904/DTD/svg10.dtd">
<svg version="1.0" xmlns="http://www.w3.org/2000/svg"
 width="260.000000pt" height="260.000000pt" viewBox="0 0 260.000000 260.000000"
 preserveAspectRatio="xMidYMid meet">
<metadata>
Created by potrace 1.14, written by Peter Selinger 2001-2017
</metadata>
<g transform="translate(0.000000,260.000000) scale(0.100000,-0.100000)"
fill="#000000" stroke="none">
<path d="M1305 2306 c-116 -37 -251 -128 -346 -234 -113 -126 -248 -363 -297
-522 -117 -382 -116 -784 3 -1027 148 -302 516 -338 853 -84 181 137 348 395
413 638 12 43 33 123 48 178 22 86 31 105 65 138 34 33 38 42 33 71 -13 83
-72 121 -187 121 -60 0 -85 -5 -122 -24 -27 -14 -48 -27 -48 -31 0 -17 -101
-59 -328 -137 -136 -46 -269 -91 -296 -98 -114 -32 -216 -101 -216 -147 0 -29
41 -81 85 -108 62 -38 175 -21 257 39 22 16 74 43 116 60 63 24 303 104 361
119 12 3 13 -8 8 -63 -13 -139 -113 -313 -271 -471 -84 -84 -115 -108 -189
-144 -139 -69 -233 -66 -319 9 -151 133 -158 525 -17 910 33 89 117 260 163
330 64 98 101 130 206 178 164 75 184 87 207 122 25 37 32 116 13 151 -20 38
-116 51 -195 26z"/>
</g>
</svg>
